<svg width="87" height="87" viewBox="0 0 87 87" fill="none" xmlns="http://www.w3.org/2000/svg">
<path d="M76.125 36.25H10.875M58 7.25V21.75M29 7.25V21.75M38.0625 50.75L43.5 47.125V65.25M38.9688 65.25H48.0312M28.275 79.75H58.725C64.8156 79.75 67.8609 79.75 70.1871 78.5647C72.2334 77.5221 73.8971 75.8584 74.9397 73.8121C76.125 71.4859 76.125 68.4406 76.125 62.35V31.9C76.125 25.8094 76.125 22.7641 74.9397 20.4379C73.8971 18.3916 72.2334 16.7279 70.1871 15.6853C67.8609 14.5 64.8156 14.5 58.725 14.5H28.275C22.1844 14.5 19.1391 14.5 16.8129 15.6853C14.7666 16.7279 13.1029 18.3916 12.0603 20.4379C10.875 22.7641 10.875 25.8094 10.875 31.9V62.35C10.875 68.4406 10.875 71.4859 12.0603 73.8121C13.1029 75.8584 14.7666 77.5221 16.8129 78.5647C19.1391 79.75 22.1844 79.75 28.275 79.75Z" stroke="#3C533A" stroke-width="6" stroke-linecap="round" stroke-linejoin="round"/>
</svg>
