<svg width="25" height="25" viewBox="0 0 25 25" fill="none" xmlns="http://www.w3.org/2000/svg">
<rect width="25" height="25" rx="7" fill="#F9B691"/>
<path d="M7.99881 8.75004L8.75004 7.99881L12.1465 11.3953L12.5 11.7488L12.8536 11.3953L16.25 7.99881L17.0013 8.75004L13.6048 12.1465L13.2513 12.5L13.6048 12.8536L17.0013 16.25L16.25 17.0013L12.8536 13.6048L12.5 13.2513L12.1465 13.6048L8.75004 17.0013L7.99881 16.25L11.3953 12.8536L11.7488 12.5L11.3953 12.1465L7.99881 8.75004ZM12.5 22.4167C11.1241 22.4167 9.8377 22.156 8.63564 21.6373C7.42387 21.1144 6.37479 20.4073 5.4838 19.5163C4.59282 18.6253 3.88565 17.5762 3.36277 16.3644C2.84407 15.1624 2.58337 13.8759 2.58337 12.5C2.58337 11.1241 2.84407 9.8377 3.36277 8.63564C3.88565 7.42387 4.59282 6.37479 5.4838 5.4838C6.37479 4.59282 7.42387 3.88565 8.63564 3.36277C9.8377 2.84407 11.1241 2.58337 12.5 2.58337C13.8759 2.58337 15.1624 2.84407 16.3644 3.36277C17.5762 3.88565 18.6253 4.59282 19.5163 5.4838C20.4073 6.37479 21.1144 7.42387 21.6373 8.63564C22.156 9.8377 22.4167 11.1241 22.4167 12.5C22.4167 13.8759 22.156 15.1624 21.6373 16.3644C21.1144 17.5762 20.4073 18.6253 19.5163 19.5163C18.6253 20.4073 17.5762 21.1144 16.3644 21.6373C15.1624 22.156 13.8759 22.4167 12.5 22.4167ZM12.5 21.3334C14.9562 21.3334 17.0547 20.4754 18.7651 18.7651C20.4754 17.0547 21.3334 14.9562 21.3334 12.5C21.3334 10.0438 20.4754 7.94534 18.7651 6.23503C17.0547 4.52471 14.9562 3.66671 12.5 3.66671C10.0438 3.66671 7.94534 4.52471 6.23503 6.23503C4.52471 7.94534 3.66671 10.0438 3.66671 12.5C3.66671 14.9562 4.52471 17.0547 6.23503 18.7651C7.94534 20.4754 10.0438 21.3334 12.5 21.3334Z" fill="#3C533A" stroke="#3C533A"/>
</svg>
