<svg width="87" height="87" viewBox="0 0 87 87" fill="none" xmlns="http://www.w3.org/2000/svg">
<path d="M30.8125 53.1667C30.8125 57.8381 34.5994 61.625 39.2708 61.625H47.125C52.1301 61.625 56.1875 57.5676 56.1875 52.5625C56.1875 47.5574 52.1301 43.5 47.125 43.5H39.875C34.8699 43.5 30.8125 39.4426 30.8125 34.4375C30.8125 29.4324 34.8699 25.375 39.875 25.375H47.7292C52.4006 25.375 56.1875 29.1619 56.1875 33.8333M43.5 19.9375V25.375M43.5 61.625V67.0625M79.75 43.5C79.75 63.5203 63.5203 79.75 43.5 79.75C23.4797 79.75 7.25 63.5203 7.25 43.5C7.25 23.4797 23.4797 7.25 43.5 7.25C63.5203 7.25 79.75 23.4797 79.75 43.5Z" stroke="#3C533A" stroke-width="6" stroke-linecap="round" stroke-linejoin="round"/>
</svg>
