<svg width="25" height="25" viewBox="0 0 25 25" fill="none" xmlns="http://www.w3.org/2000/svg">
<rect width="25" height="25" rx="7" fill="#CFC0E5"/>
<g clip-path="url(#clip0_734_234)">
<path d="M17.125 17.25H12.125M5.5625 17.5416L9.03079 16.2966C9.25263 16.217 9.36355 16.1772 9.46732 16.1252C9.5595 16.079 9.64737 16.0257 9.73003 15.9658C9.82308 15.8984 9.90711 15.82 10.0752 15.6631L17.125 9.08331C17.8154 8.43898 17.8154 7.39431 17.125 6.74997C16.4347 6.10564 15.3154 6.10564 14.625 6.74997L7.57518 13.3298C7.40711 13.4867 7.32308 13.5651 7.25087 13.6519C7.18673 13.7291 7.12963 13.8111 7.08015 13.8971C7.02444 13.994 6.98178 14.0975 6.89646 14.3046L5.5625 17.5416ZM5.5625 17.5416L6.84883 14.4202C6.94087 14.1968 6.9869 14.0851 7.06584 14.034C7.13482 13.9893 7.22019 13.9724 7.30268 13.9871C7.39708 14.0039 7.48774 14.0885 7.66905 14.2577L9.08098 15.5755C9.2623 15.7448 9.35295 15.8294 9.37098 15.9175C9.38673 15.9945 9.36862 16.0742 9.32072 16.1385C9.2659 16.2122 9.14624 16.2552 8.90692 16.3411L5.5625 17.5416Z" stroke="#3C533A" stroke-width="2" stroke-linecap="round" stroke-linejoin="round"/>
</g>
<defs>
<clipPath id="clip0_734_234">
<rect width="15" height="14" fill="white" transform="translate(4 5)"/>
</clipPath>
</defs>
</svg>
