<svg width="87" height="87" viewBox="0 0 87 87" fill="none" xmlns="http://www.w3.org/2000/svg">
<path d="M54.375 8.90953C50.942 7.83128 47.2889 7.25 43.5 7.25C23.4797 7.25 7.25 23.4797 7.25 43.5C7.25 63.5203 23.4797 79.75 43.5 79.75C63.5203 79.75 79.75 63.5203 79.75 43.5C79.75 37.2819 78.1844 31.4295 75.4259 26.3155M61.625 20.8438H61.6431M38.0627 79.3449L38.0631 71.3579C38.0631 70.9252 38.2179 70.5069 38.4994 70.1784L47.5104 59.6653C48.2509 58.8014 48.0215 57.4767 47.0335 56.9121L36.6797 50.9955C36.3984 50.8348 36.1653 50.6016 36.0047 50.3202L29.2554 38.4925C28.9041 37.877 28.2263 37.5226 27.5204 37.5855L7.48267 39.3702M76.125 21.75C76.125 29.7581 68.875 36.25 61.625 43.5C54.375 36.25 47.125 29.7581 47.125 21.75C47.125 13.7419 53.6169 7.25 61.625 7.25C69.6331 7.25 76.125 13.7419 76.125 21.75ZM62.5312 20.8438C62.5312 21.3443 62.1255 21.75 61.625 21.75C61.1245 21.75 60.7188 21.3443 60.7188 20.8438C60.7188 20.3432 61.1245 19.9375 61.625 19.9375C62.1255 19.9375 62.5312 20.3432 62.5312 20.8438Z" stroke="#FAFAFA" stroke-width="2" stroke-linecap="round" stroke-linejoin="round"/>
</svg>
