<svg width="21" height="22" viewBox="0 0 21 22" fill="none" xmlns="http://www.w3.org/2000/svg">
<path d="M8.00004 11.9166C8.36823 11.9166 8.66671 11.5062 8.66671 11C8.66671 10.4937 8.36823 10.0833 8.00004 10.0833C7.63185 10.0833 7.33337 10.4937 7.33337 11C7.33337 11.5062 7.63185 11.9166 8.00004 11.9166Z" stroke="#AECF83" stroke-width="2" stroke-linecap="round" stroke-linejoin="round"/>
<path d="M8.00004 5.49996C8.36823 5.49996 8.66671 5.08955 8.66671 4.58329C8.66671 4.07703 8.36823 3.66663 8.00004 3.66663C7.63185 3.66663 7.33337 4.07703 7.33337 4.58329C7.33337 5.08955 7.63185 5.49996 8.00004 5.49996Z" stroke="#AECF83" stroke-width="2" stroke-linecap="round" stroke-linejoin="round"/>
<path d="M8.00004 18.3333C8.36823 18.3333 8.66671 17.9229 8.66671 17.4166C8.66671 16.9104 8.36823 16.5 8.00004 16.5C7.63185 16.5 7.33337 16.9104 7.33337 17.4166C7.33337 17.9229 7.63185 18.3333 8.00004 18.3333Z" stroke="#AECF83" stroke-width="2" stroke-linecap="round" stroke-linejoin="round"/>
<path d="M13 11.9166C13.3682 11.9166 13.6667 11.5062 13.6667 11C13.6667 10.4937 13.3682 10.0833 13 10.0833C12.6319 10.0833 12.3334 10.4937 12.3334 11C12.3334 11.5062 12.6319 11.9166 13 11.9166Z" stroke="#AECF83" stroke-width="2" stroke-linecap="round" stroke-linejoin="round"/>
<path d="M13 5.49996C13.3682 5.49996 13.6667 5.08955 13.6667 4.58329C13.6667 4.07703 13.3682 3.66663 13 3.66663C12.6319 3.66663 12.3334 4.07703 12.3334 4.58329C12.3334 5.08955 12.6319 5.49996 13 5.49996Z" stroke="#AECF83" stroke-width="2" stroke-linecap="round" stroke-linejoin="round"/>
<path d="M13 18.3333C13.3682 18.3333 13.6667 17.9229 13.6667 17.4166C13.6667 16.9104 13.3682 16.5 13 16.5C12.6319 16.5 12.3334 16.9104 12.3334 17.4166C12.3334 17.9229 12.6319 18.3333 13 18.3333Z" stroke="#AECF83" stroke-width="2" stroke-linecap="round" stroke-linejoin="round"/>
</svg>
