<svg width="44" height="40" viewBox="0 0 44 40" fill="none" xmlns="http://www.w3.org/2000/svg">
<path d="M30.4 9.44444C30.4 7.48117 30.4 6.49953 30.1853 5.69415C29.6028 3.50856 27.9046 1.80143 25.7306 1.2158C24.9294 1 23.9529 1 22 1C20.0471 1 19.0706 1 18.2694 1.2158C16.0954 1.80143 14.3972 3.50856 13.8147 5.69415C13.6 6.49953 13.6 7.48117 13.6 9.44444M23.68 31.6111H33.97C34.5581 31.6111 34.8521 31.6111 35.0767 31.4961C35.2743 31.3949 35.4349 31.2334 35.5356 31.0348C35.65 30.809 35.65 30.5134 35.65 29.9222V24.8556C35.65 24.2644 35.65 23.9688 35.5356 23.743C35.4349 23.5444 35.2743 23.3829 35.0767 23.2817C34.8521 23.1667 34.5581 23.1667 33.97 23.1667H23.68C23.0919 23.1667 22.7979 23.1667 22.5733 23.2817C22.3757 23.3829 22.2151 23.5444 22.1144 23.743C22 23.9688 22 24.2644 22 24.8556V29.9222C22 30.5134 22 30.809 22.1144 31.0348C22.2151 31.2334 22.3757 31.3949 22.5733 31.4961C22.7979 31.6111 23.0919 31.6111 23.68 31.6111ZM11.08 39H32.92C36.4483 39 38.2125 39 39.5601 38.3097C40.7456 37.7025 41.7093 36.7336 42.3133 35.5419C43 34.1872 43 32.4137 43 28.8667V19.5778C43 16.0308 43 14.2573 42.3133 12.9025C41.7093 11.7108 40.7456 10.7419 39.5601 10.1347C38.2125 9.44444 36.4483 9.44444 32.92 9.44444H11.08C7.55167 9.44444 5.7875 9.44444 4.43986 10.1347C3.25444 10.7419 2.29066 11.7108 1.68666 12.9025C1 14.2573 1 16.0308 1 19.5778V28.8667C1 32.4137 1 34.1872 1.68666 35.5419C2.29066 36.7336 3.25444 37.7025 4.43986 38.3097C5.7875 39 7.55167 39 11.08 39Z" stroke="#3D5846" stroke-width="2" stroke-linecap="round" stroke-linejoin="round"/>
</svg>
