<svg width="44" height="44" viewBox="0 0 44 44" fill="none" xmlns="http://www.w3.org/2000/svg">
<path d="M31.1666 18.3333V14.6667C31.1666 9.60406 27.0625 5.5 21.9999 5.5C16.9373 5.5 12.8333 9.60406 12.8333 14.6667V18.3333M21.9999 26.5833V30.25M16.1333 38.5H27.8666C30.9469 38.5 32.487 38.5 33.6635 37.9005C34.6984 37.3732 35.5398 36.5318 36.0671 35.4969C36.6666 34.3204 36.6666 32.7803 36.6666 29.7V27.1333C36.6666 24.053 36.6666 22.5129 36.0671 21.3364C35.5398 20.3015 34.6984 19.4601 33.6635 18.9328C32.487 18.3333 30.9469 18.3333 27.8666 18.3333H16.1333C13.053 18.3333 11.5128 18.3333 10.3363 18.9328C9.30141 19.4601 8.46002 20.3015 7.93272 21.3364C7.33325 22.5129 7.33325 24.053 7.33325 27.1333V29.7C7.33325 32.7803 7.33325 34.3204 7.93272 35.4969C8.46002 36.5318 9.30141 37.3732 10.3363 37.9005C11.5128 38.5 13.053 38.5 16.1333 38.5Z" stroke="white" stroke-width="2" stroke-linecap="round" stroke-linejoin="round"/>
</svg>
