<svg width="39" height="39" viewBox="0 0 39 39" fill="none" xmlns="http://www.w3.org/2000/svg">
<path d="M3.25 11.375L16.518 20.6626C17.5924 21.4147 18.1296 21.7907 18.7139 21.9364C19.2301 22.065 19.7699 22.065 20.2861 21.9364C20.8704 21.7907 21.4076 21.4147 22.482 20.6626L35.75 11.375M11.05 32.5H27.95C30.6803 32.5 32.0454 32.5 33.0882 31.9687C34.0055 31.5013 34.7513 30.7555 35.2187 29.8382C35.75 28.7954 35.75 27.4303 35.75 24.7V14.3C35.75 11.5697 35.75 10.2046 35.2187 9.1618C34.7513 8.24451 34.0055 7.49873 33.0882 7.03134C32.0454 6.5 30.6803 6.5 27.95 6.5H11.05C8.31974 6.5 6.95462 6.5 5.9118 7.03134C4.99451 7.49873 4.24873 8.24451 3.78134 9.1618C3.25 10.2046 3.25 11.5697 3.25 14.3V24.7C3.25 27.4303 3.25 28.7954 3.78134 29.8382C4.24873 30.7555 4.99451 31.5013 5.9118 31.9687C6.95462 32.5 8.31974 32.5 11.05 32.5Z" stroke="white" stroke-width="2" stroke-linecap="round" stroke-linejoin="round"/>
</svg>
